<?xml version="1.0" standalone="no"?>
<!DOCTYPE svg PUBLIC "-//W3C//DTD SVG 1.1//EN" "http://www.w3.org/Graphics/SVG/1.1/DTD/svg11.dtd" >
<svg xmlns="http://www.w3.org/2000/svg">
<metadata>Generated by IcoMoon</metadata>
<defs>
<font id="icomoon" horiz-adv-x="1024">
<font-face units-per-em="1024" ascent="960" descent="-64" />
<missing-glyph horiz-adv-x="1024" />
<glyph unicode="&#x20;" horiz-adv-x="512" d="" />
<glyph unicode="&#xe900;" d="M512 886.848c230.816 0 417.952-187.136 417.952-417.952s-187.136-417.952-417.952-417.952c-230.816 0-417.952 187.136-417.952 417.952s187.136 417.952 417.952 417.952z" />
<glyph unicode="&#xe901;" d="M696.768 489.792h-155.072v146.272c0 11.552-9.344 20.896-20.896 20.896s-20.896-9.344-20.896-20.896v0-146.272h-155.072c-11.552 0-20.896-9.344-20.896-20.896s9.344-20.896 20.896-20.896v0h155.072v-146.272c0-11.552 9.344-20.896 20.896-20.896s20.896 9.344 20.896 20.896v0 146.272h155.072c11.552 0 20.896 9.344 20.896 20.896s-9.344 20.896-20.896 20.896v0z" />
<glyph unicode="&#xe902;" glyph-name="add-arrow" d="M896 504.32h-327.68v327.68c0 31.104-25.216 56.32-56.32 56.32v0c-31.104 0-56.32-25.216-56.32-56.32v0-327.68h-327.68c-31.104 0-56.32-25.216-56.32-56.32v0c0-31.104 25.216-56.32 56.32-56.32h327.68v-327.68c0-31.104 25.216-56.32 56.32-56.32v0c31.104 0 56.32 25.216 56.32 56.32v0 327.68h327.68c31.104 0 56.32 25.216 56.32 56.32v0c0 31.104-25.216 56.32-56.32 56.32v0z" />
<glyph unicode="&#xe904;" glyph-name="collapse-arrow" d="M878.656 327.52l-324.416 324.928c-10.656 10.752-25.44 17.408-41.76 17.408-0.064 0-0.128 0-0.192 0v0c-0.032 0-0.096 0-0.128 0-16.352 0-31.136-6.624-41.856-17.344l-324.96-324.96c-10.72-10.752-17.376-25.6-17.376-41.984s6.624-31.232 17.376-41.984v0c10.784-10.72 25.632-17.344 42.048-17.344s31.264 6.624 42.048 17.344l282.56 282.624 282.688-282.624c10.752-10.72 25.6-17.376 42.016-17.376s31.264 6.624 42.016 17.376v0c10.72 10.752 17.344 25.568 17.344 41.952s-6.656 31.264-17.376 42.016v0z" />
<glyph unicode="&#xe905;" glyph-name="customer-arrives-icon" horiz-adv-x="1056" d="M906.208 623.104h-216.288v148.352c0.48 4.992 0.768 10.784 0.768 16.64 0 54.88-24.832 103.968-63.872 136.64l-0.288 0.224c-29.024 17.92-64.192 28.544-101.856 28.544-20.512 0-40.288-3.136-58.88-8.992l1.376 0.384c-15.040-4.864-25.696-18.752-25.728-35.136v-178.976c0-132.48-155.872-178.624-162.528-180.288-0.448 0-0.864 0-1.088-0.448l-17.824-5.568c-19.904 18.976-46.944 30.624-76.672 30.624-0.032 0-0.064 0-0.096 0h-67.712c-0.064 0-0.128 0-0.224 0-61.696 0-111.68-50.016-111.68-111.68 0 0 0 0 0 0v0-385.056c0.032-61.792 50.112-111.872 111.904-111.904h67.52c28.544 0 54.56 10.816 74.208 28.544l-0.096-0.096c28.448-33.888 70.784-55.264 118.144-55.328h438.24c4.768-0.48 10.336-0.768 15.936-0.768 85.952 0 156.64 65.344 165.088 149.056l0.064 0.704 54.464 341.952 2.976 18.464c1.312 7.808 2.080 16.864 2.176 26.080v0.096c-0.32 81.6-66.4 147.648-147.936 147.968h-0.032zM221.44 78.112c0-0.032 0-0.032 0-0.064 0-21.152-17.152-38.304-38.304-38.304-0.032 0-0.064 0-0.064 0h-67.52c-0.032 0-0.032 0-0.064 0-21.152 0-38.304 17.152-38.304 38.304 0 0.032 0 0.064 0 0.064v0 385.28c0 0.032 0 0.032 0 0.064 0 21.152 17.152 38.304 38.304 38.304 0.032 0 0.064 0 0.064 0h67.52c0.032 0 0.032 0 0.064 0 21.152 0 38.304-17.152 38.304-38.304 0-0.032 0-0.064 0-0.064v0zM979.52 460.352l-57.44-361.024c0-0.448 0-0.864 0-1.312-2.592-20.992-10.272-85.12-108.064-85.12h-438.432c-44.48 0.096-80.544 36.128-80.608 80.608v369.856c-0.064 5.152-0.448 10.176-1.152 15.104l0.064-0.608 5.376 1.728c15.648 4.48 215.488 65.856 215.488 251.072v148.864c4.576 0.736 9.856 1.152 15.264 1.152 19.68 0 38.016-5.632 53.536-15.392l-0.416 0.256c20.928-20.32 33.92-48.736 33.92-80.192 0-4.928-0.32-9.792-0.928-14.528l0.064 0.576v-185.216c0-20.352 16.512-36.864 36.864-36.864v0h253.024c41.056-0.032 74.336-33.312 74.4-74.4v0c0-0.16 0-0.32 0-0.512 0-4.96-0.32-9.824-0.928-14.624l0.064 0.576z" />
<glyph unicode="&#xe906;" glyph-name="date-arrow-left" d="M312.32 447.616c0-0.032 0-0.064 0-0.096 0-14.784 6.016-28.192 15.744-37.856l291.968-291.968c9.472-8.48 22.016-13.664 35.808-13.664 29.664 0 53.696 24.032 53.696 53.696 0 13.984-5.344 26.688-14.080 36.256l0.032-0.032-253.312 253.632 253.824 253.952c9.696 9.76 15.712 23.2 15.712 38.048s-5.984 28.288-15.712 38.048v0c-9.728 9.696-23.168 15.712-37.984 15.712s-28.256-6.016-37.984-15.712l-291.968-291.84c-9.728-9.728-15.744-23.136-15.744-37.984 0-0.064 0-0.096 0-0.16v0z" />
<glyph unicode="&#xe907;" glyph-name="date-arrow-right" d="M711.68 448.384c0 0.032 0 0.064 0 0.096 0 14.784-6.016 28.192-15.744 37.856l-291.904 291.968c-9.6 9.056-22.592 14.624-36.864 14.624-29.696 0-53.76-24.064-53.76-53.76 0-14.4 5.664-27.456 14.848-37.12l253.536-253.6-253.824-253.952c-9.696-9.76-15.712-23.2-15.712-38.048s5.984-28.288 15.712-38.048v0c9.728-9.728 23.168-15.712 38.016-15.712s28.288 6.016 38.016 15.712l291.904 291.84c9.728 9.728 15.744 23.136 15.744 37.984 0 0.064 0 0.096 0 0.16v0z" />
<glyph unicode="&#xe908;" glyph-name="day-icon" d="M1011.52 228.512h-975.232c0 0 0 0 0 0-20.096 0-36.384 16.288-36.384 36.384 0 0.032 0 0.032 0 0.064v0 366.112c0 20.096 16.288 36.384 36.384 36.384v0h975.232c20.096 0 36.384-16.288 36.384-36.384v0-366.112c0 0 0-0.032 0-0.064 0-20.096-16.288-36.384-36.384-36.384 0 0 0 0 0 0v0zM72.64 301.184h902.592v293.6h-902.592zM36.32 813.728h975.232c20.064 0 36.32-16.256 36.32-36.32s-16.256-36.32-36.32-36.32h-975.232c-20.064 0-36.32 16.256-36.32 36.32s16.256 36.32 36.32 36.32zM36.32 154.88h975.232c20.064 0 36.32-16.256 36.32-36.32s-16.256-36.32-36.32-36.32h-975.232c-20.064 0-36.32 16.256-36.32 36.32s16.256 36.32 36.32 36.32z" />
<glyph unicode="&#xe909;" glyph-name="edit-calendars-icon" d="M953.472 886.784c-29.856 30.4-71.36 49.216-117.28 49.216-44.704 0-85.248-17.856-114.88-46.816l-641.76-641.44c-5.888-5.824-10.112-13.312-11.84-21.728l-0.064-0.288-42.688-213.824c-0.576-2.528-0.896-5.408-0.896-8.416 0-0.224 0-0.448 0-0.64v0.032c0.064-23.744 19.328-42.944 43.072-42.944 0 0 0 0 0 0v0c0.064 0 0.128 0 0.192 0 2.912 0 5.76 0.32 8.512 0.96l-0.256-0.064 213.76 42.688c8.736 1.696 16.288 5.888 22.144 11.776l641.728 641.92c28.832 29.664 46.624 70.208 46.624 114.912 0 44.576-17.696 85.024-46.4 114.688l0.032-0.032zM666.24 712.256l110.144-110.144-516.672-516.736-137.792-27.456 27.52 137.792zM837.248 662.976l-110.144 110.144 55.616 55.552c1.792 1.856 3.52 3.648 5.376 5.312 13.792 12.48 32.192 20.128 52.352 20.128 22.88 0 43.456-9.824 57.76-25.504l0.064-0.064c12.48-13.6 20.16-31.84 20.16-51.872 0-1.536-0.032-3.040-0.128-4.544v0.192c-1.088-21.696-10.912-40.896-25.984-54.336l-0.064-0.064z" />
<glyph unicode="&#xe90a;" glyph-name="expand-arrow" d="M145.344 568.48l324.416-324.928c10.656-10.752 25.44-17.408 41.76-17.408 0.064 0 0.128 0 0.192 0v0c0.032 0 0.096 0 0.128 0 16.352 0 31.136 6.624 41.856 17.344l324.96 324.96c10.72 10.752 17.376 25.6 17.376 41.984s-6.624 31.232-17.376 41.984v0c-10.784 10.72-25.632 17.344-42.048 17.344s-31.264-6.624-42.048-17.344l-282.56-282.624-282.688 282.624c-10.752 10.72-25.6 17.376-42.016 17.376s-31.264-6.624-42.016-17.376v0c-10.72-10.752-17.344-25.568-17.344-41.952s6.656-31.264 17.376-42.016v0z" />
<glyph unicode="&#xe90b;" glyph-name="mini-calendar-left-arrow" d="M740.096 129.792l-317.44 317.568 317.696 318.080c11.872 11.84 19.2 28.224 19.2 46.304 0 36.128-29.312 65.44-65.44 65.44-18.048 0-34.4-7.296-46.24-19.136l-364.288-364.352c-11.84-11.84-19.168-28.192-19.168-46.272s7.328-34.432 19.168-46.272l364.288-364.288c11.744-11.264 27.712-18.176 45.28-18.176 36.16 0 65.472 29.312 65.472 65.472 0 17.76-7.072 33.856-18.56 45.664v0z" />
<glyph unicode="&#xe90c;" glyph-name="mini-calendar-right-arrow" d="M283.904 766.272l317.376-317.632-317.76-318.080c-11.904-11.872-19.232-28.288-19.232-46.4 0-36.192 29.344-65.568 65.568-65.568 18.080 0 34.432 7.328 46.304 19.168v0l364.288 364.8c11.84 11.84 19.168 28.192 19.168 46.272s-7.328 34.432-19.168 46.272l-364.288 364.096c-11.744 11.264-27.712 18.176-45.28 18.176-36.16 0-65.472-29.312-65.472-65.472 0-17.76 7.072-33.856 18.56-45.664v0z" />
<glyph unicode="&#xe90d;" glyph-name="month-icon" d="M0 777.344v-659.072c0 0 0 0 0 0 0-20.096 16.288-36.384 36.384-36.416h975.232c20.096 0.032 36.384 16.32 36.384 36.416 0 0 0 0 0 0v0 659.072c0 20.096-16.288 36.384-36.384 36.384v0h-975.232c-20.096 0-36.384-16.288-36.384-36.384v0zM975.232 484.192h-237.184v256.864h237.184zM400.832 484.192v256.864h264.544v-257.088zM665.344 411.52v-256.832h-264.544v256.832zM328.128 741.056v-257.088h-255.648v256.864zM72.64 411.52h255.456v-256.832h-255.648zM738.048 154.688v256.832h237.184v-256.832z" />
<glyph unicode="&#xe90e;" glyph-name="next-appointment-icon" d="M898.176-52.64h-772.256c-63.264 0.032-114.56 51.232-114.816 114.432v688.832c0.032 63.392 51.424 114.784 114.816 114.816h772.256c63.392-0.032 114.784-51.424 114.816-114.816v-688.832c-0.256-63.232-51.552-114.432-114.816-114.464v0zM125.92 802.784c-28.832-0.032-52.16-23.392-52.192-52.192v-688.736c0.032-28.832 23.392-52.16 52.192-52.192h772.256c28.832 0.032 52.16 23.392 52.192 52.192v688.832c-0.032 28.832-23.392 52.16-52.192 52.192v0zM125.92 802.784M981.6 552.384h-939.232c-17.28 0-31.296 14.016-31.296 31.296s14.016 31.296 31.296 31.296v0h939.232c17.28 0 31.296-14.016 31.296-31.296s-14.016-31.296-31.296-31.296v0zM981.6 552.384M251.136 698.432c-17.28 0-31.296 14.016-31.296 31.296v0 187.872c0 17.28 14.016 31.296 31.296 31.296s31.296-14.016 31.296-31.296v-187.872c0-17.28-14.016-31.296-31.296-31.296v0zM251.136 698.432M772.928 698.432c-17.28 0-31.296 14.016-31.296 31.296v0 187.872c0 17.28 14.016 31.296 31.296 31.296s31.296-14.016 31.296-31.296v0-187.872c0-17.28-14.016-31.296-31.296-31.296v0zM772.928 698.432" />
<glyph unicode="&#xe90f;" glyph-name="no-show-icon" horiz-adv-x="1056" d="M151.744 272.896h216.352v-148.352c-0.512-5.12-0.832-11.072-0.832-17.088 0-54.688 24.64-103.584 63.424-136.256l0.256-0.224c29.056-17.952 64.288-28.608 101.984-28.608 20.608 0 40.448 3.168 59.104 9.056l-1.376-0.384c15.040 4.864 25.696 18.752 25.728 35.136v179.072c0 132.48 155.872 178.624 162.528 180.288 0.448 0 0.864 0 1.088 0.448l17.824 5.568c19.904-18.976 46.944-30.624 76.672-30.624 0.032 0 0.064 0 0.096 0h67.488c0.064 0 0.128 0 0.224 0 61.696 0 111.68 50.016 111.68 111.68 0 0 0 0 0 0v0 385.056c-0.032 61.792-50.112 111.872-111.904 111.904h-67.52c0 0-0.032 0-0.032 0-28.608 0-54.656-10.848-74.304-28.608l0.096 0.096c-28.448 33.888-70.784 55.264-118.144 55.328h-438.080c-4.768 0.48-10.304 0.768-15.936 0.768-85.952 0-156.64-65.344-165.088-149.056l-0.064-0.704-54.336-341.952-2.976-18.464c-1.312-7.808-2.080-16.864-2.176-26.080v-0.096c0.384-81.6 66.496-147.68 148.096-147.904h0.032zM836.608 817.888c0 0.032 0 0.032 0 0.064 0 21.152 17.152 38.304 38.304 38.304 0.032 0 0.064 0 0.064 0h67.52c0.032 0 0.032 0 0.064 0 21.152 0 38.304-17.152 38.304-38.304 0-0.032 0-0.064 0-0.064v0-385.28c0-0.032 0-0.032 0-0.064 0-21.152-17.152-38.304-38.304-38.304-0.032 0-0.064 0-0.064 0h-67.52c-0.032 0-0.032 0-0.064 0-21.152 0-38.304 17.152-38.304 38.304 0 0.032 0 0.064 0 0.064v0zM78.432 435.584l57.44 361.024c0 0.448 0 0.864 0 1.312 2.624 20.992 10.272 85.12 108.064 85.12h438.24c44.48-0.096 80.544-36.128 80.608-80.608v-369.856c0.064-5.152 0.448-10.176 1.152-15.104l-0.064 0.608-5.376-1.728c-15.648-4.48-215.488-65.856-215.488-251.072v-148.576c-4.672-0.768-10.048-1.216-15.52-1.216-19.648 0-37.984 5.632-53.504 15.36l0.416-0.256c-20.928 20.32-33.92 48.736-33.92 80.192 0 4.928 0.32 9.792 0.928 14.528l-0.064-0.576v184.992c0 20.352-16.512 36.864-36.864 36.864v0h-252.8c-41.056 0.032-74.336 33.312-74.4 74.4v0c0.064 5.184 0.448 10.24 1.152 15.168l-0.064-0.608z" />
<glyph unicode="&#xe910;" glyph-name="note-icon" d="M790.048 896.448c-68.16 39.936-150.112 63.52-237.568 63.552h-0.8c-0.32 0-0.704 0-1.088 0-131.040 0-249.632-53.344-335.232-139.488l-0.032-0.032c-86.016-85.6-139.264-204.096-139.264-335.040 0-0.48 0-0.992 0-1.472v0.064c0.064-84.576 22.144-163.968 60.864-232.8l-1.248 2.4-133.184-254.176c-1.6-4.64-2.56-9.984-2.56-15.52 0-13.376 5.408-25.472 14.144-34.272v0c8.608-8.48 20.448-13.696 33.504-13.696 0.096 0 0.192 0 0.288 0v0c6.304 0.064 12.352 1.152 17.952 3.104l-0.384-0.128 255.2 129.664c66.688-37.728 146.432-59.936 231.392-59.936 175.328 0 328.544 94.688 411.264 235.712l1.216 2.24c39.872 68.16 63.392 150.048 63.392 237.44 0 175.264-94.656 328.416-235.616 411.136l-2.24 1.216zM351.712 163.872c-7.296 4.512-16.16 7.2-25.664 7.2-6.272 0-12.256-1.184-17.76-3.296l0.352 0.128-170.048-94.528 97.6 169.6c1.44 4.416 2.304 9.504 2.304 14.752 0 9.632-2.784 18.592-7.616 26.144l0.128-0.192c-35.936 56.8-57.248 125.92-57.248 200.032 0 134.624 70.336 252.8 176.288 319.808l1.568 0.928c56.544 36 125.472 57.376 199.36 57.408v0c0 0 0 0 0 0 30.464 0 60.128-3.584 88.512-10.368l-2.592 0.512c100-23.392 182.848-84.256 234.592-166.624l0.928-1.568c35.904-56.544 57.248-125.44 57.248-199.296 0-30.496-3.648-60.16-10.496-88.576l0.512 2.56c-23.392-99.968-84.192-182.784-166.528-234.528l-1.568-0.928c-53.728-34.080-118.72-55.104-188.48-57.184h-11.328c-74.176 0.128-143.296 21.728-201.504 58.88l1.504-0.896z" />
<glyph unicode="&#xe911;" glyph-name="recurring-icon" horiz-adv-x="992" d="M903.552 782.208l-1.248 1.248-32.704 31.52c-91.872 89.536-217.568 144.768-356.16 144.768-0.032 0-0.064 0-0.096 0h-4.416c-267.040-2.752-485.12-208.576-507.296-470.24l-0.128-1.888c-0.928-11.552-1.44-24.992-1.44-38.592 0-268.736 207.040-489.088 470.304-510.336l1.824-0.128c15.136-1.664 32.704-2.592 50.496-2.592v0c180.512 3.712 336.16 106.624 414.944 256.288l1.248 2.624-95.456 43.968c-68.992-112.608-188.48-188.448-326.176-196l-1.056-0.032h-0.8c-0.544 0-1.152 0-1.792 0-109.472 0-208.832 43.296-281.888 113.696l0.128-0.128c-76.416 73.92-123.872 177.408-123.872 291.968 0 109.312 43.2 208.512 113.44 281.504l-0.128-0.128c72.032 75.040 172.64 122.208 284.288 123.904h5.6c0.608 0 1.312 0 2.048 0 109.408 0 208.672-43.296 281.632-113.696l-0.128 0.128 34.88-33.568-1.184-1.408-100.992-102.4h258.368l13.312 275.68z" />
<glyph unicode="&#xe912;" glyph-name="reminder-icon" d="M874.176 809.952c-92.096 92.672-219.616 150.048-360.576 150.048-0.416 0-0.864 0-1.28 0h-0.416c-282.656-0.256-511.744-229.344-512-511.968v-0.032c0.256-282.656 229.344-511.744 511.968-512h0.032c282.656 0.32 511.68 229.344 512 511.968v0.032c0 0.512 0 1.12 0 1.728 0 140.768-57.248 268.16-149.728 360.192l-0.032 0.032zM512.384 31.168h-0.48c-230.016 0.416-416.352 186.752-416.768 416.736v0.032c0.416 230.016 186.752 416.352 416.736 416.768h0.032c230.016-0.416 416.352-186.752 416.768-416.736v-0.032c-0.128-229.952-186.368-416.352-416.256-416.768h-0.032zM511.84 384.512h2.368c25.248 1.12 45.408 21.472 46.24 46.72v258.912c0 0.032 0 0.064 0 0.064 0 26.816-21.728 48.544-48.512 48.608v0c-26.816-0.128-48.512-21.856-48.608-48.672v-259.328c1.376-25.792 22.528-46.176 48.512-46.304v0zM511.936 309.824c-34.816 0-63.008-28.224-63.008-63.008v0c0-34.816 28.224-63.008 63.008-63.008v0c34.816 0 63.008 28.224 63.008 63.008v0c0 34.816-28.224 63.008-63.008 63.008v0z" />
<glyph unicode="&#xe913;" glyph-name="search-icon" d="M456.864 747.328c-134.912 0-244.288-109.376-244.288-244.288s109.376-244.288 244.288-244.288c134.912 0 244.288 109.376 244.288 244.288v0c0 134.912-109.376 244.288-244.288 244.288v0zM90.464 503.040c0 0.032 0 0.032 0 0.064 0 202.336 164.032 366.4 366.4 366.4s366.4-164.032 366.4-366.4c0-79.584-25.376-153.248-68.48-213.344l0.736 1.088 160.704-160.672c10.688-10.976 17.312-26.016 17.312-42.592 0-33.728-27.36-61.088-61.088-61.088-16.576 0-31.616 6.592-42.624 17.312v0l-160.832 160.576c-58.976-42.304-132.576-67.648-212.128-67.648-202.336 0-366.336 163.968-366.432 366.272v0z" />
<glyph unicode="&#xe914;" glyph-name="send-message-icon" d="M715.136 666.336v0c-2.624 2.592-6.272 4.224-10.272 4.224-1.92 0-3.744-0.384-5.408-1.056l0.096 0.032-393.568-157.312c-5.408-2.208-9.12-7.424-9.12-13.504 0-5.728 3.296-10.688 8.096-13.056l0.096-0.032 154.4-74.88 74.912-154.368c2.496-4.928 7.488-8.224 13.28-8.224 0.096 0 0.192 0 0.32 0v0c5.856 0.224 10.848 3.904 12.928 9.024l0.032 0.096 157.376 393.312c0.672 1.632 1.088 3.52 1.088 5.504 0 4-1.6 7.616-4.224 10.272v0zM644.416 616.224l-177.024-177.024-120 58.176zM664.992 595.648l-118.88-296.992-58.176 120.064z" />
<glyph unicode="&#xe915;" horiz-adv-x="1056" d="M1043.008 498.784c0 48.736-25.728 62.912-135.616 102.464l-6.272 2.24 2.656 6.112c46.464 106.016 54.048 134.176 19.744 168.032l-70.656 68.672c-12.608 12.16-29.76 19.648-48.672 19.648v0c-11.904 0-25.312 0-121.248-42.688l-5.856-2.624-2.4 5.984c-43.456 108.288-58.4 133.248-105.408 133.248h-99.776c-48 0-62.368-25.344-103.456-133.76l-2.272-6.016-5.952 2.624c-97.568 40.48-110.816 40.48-122.496 40.48-18.752-0.16-35.712-7.648-48.192-19.712l0.032 0.032-70.656-68.896c-34.752-34.176-26.368-63.936 21.792-166.528l2.816-6.016-6.208-2.4c-111.040-43.328-134.816-57.12-134.816-104.896v-97.696c0-48.736 25.696-62.944 135.552-102.592l6.24-2.208-2.656-6.144c-46.336-105.664-53.76-133.856-19.712-167.616l70.208-68.64c12.576-12.288 29.76-19.904 48.736-20v0c11.808 0 25.248 0 121.184 42.72l5.888 2.656 2.4-5.984c42.016-103.456 56.32-133.28 105.888-133.28h99.776c48.064 0 62.368 25.408 103.52 133.952l2.272 6.016 5.952-2.464c97.664-40.704 111.328-40.704 122.336-40.704 18.816 0.096 35.872 7.552 48.448 19.616l-0.032-0.032 70.976 69.472c34.432 34.208 25.984 63.904-22.112 166.272l-2.816 5.856 6.208 2.464c109.216 42.56 134.72 57.312 134.72 104.704zM969.472 403.616l-3.104-1.824c-19.776-11.392-72.032-31.808-100.064-42.784l-20-7.808-24.928-58.944 7.072-14.624c13.824-26.624 28.672-60.096 41.728-94.464l2.368-7.104 1.088-3.616-67.744-66.528-3.584 1.152c-43.776 14.24-79.328 28.32-113.856 44.256l6.464-2.688-13.76 5.856-60-24.32-5.696-15.008c-14.912-42.112-29.184-75.872-45.056-108.704l2.816 6.464-1.696-3.584h-95.872l-1.824 3.040c-12.128 20.416-35.296 77.664-45.184 102.144l-6.24 15.136-60.064 24.224-14.208-6.432c-27.328-13.696-61.792-28.384-97.152-41.216l-7.264-2.304-3.648-1.28-67.776 66.304 0.96 3.52c6.112 22.432 29.088 75.2 40.288 100.544l8.032 18.176-24.608 58.976-15.104 5.408c-35.488 12-70.656 25.952-104.672 41.568l-3.648 1.664v93.952l3.2 1.792c19.712 11.008 69.632 30.72 105.504 44.576l14.464 5.664 24.928 58.848-7.072 14.72c-13.504 26.176-28.352 59.552-41.536 93.76l-2.56 7.552-1.408 3.84 67.936 66.304 3.52-1.12c43.584-13.952 79.168-27.936 113.696-43.808l-6.208 2.56 13.728-5.856 59.936 24.224 5.664 15.104c14.976 42.208 29.312 76.096 45.28 109.056l-2.816-6.4 1.792 3.2h95.616l1.824-3.040c13.664-26.080 28.672-59.264 41.984-93.248l2.56-7.424 6.912-16.64 59.936-24.288 14.208 6.528c27.296 13.664 61.76 28.288 97.152 41.088l7.296 2.304 3.648 1.248 67.936-66.208-0.96-3.52c-5.792-21.12-26.976-69.888-38.336-96.064l-9.984-22.688 24.928-58.976 18.016-6.368c42.176-14.336 75.872-28.032 108.672-43.328l-6.752 2.816 3.296-1.792z" />
<glyph unicode="&#xe916;" horiz-adv-x="1056" d="M376.512 444.864c1.664-80.48 67.296-145.12 148.032-145.152h3.136c80.8 1.312 145.792 67.136 145.792 148.128 0 81.824-66.336 148.128-148.128 148.128-0.832 0-1.632 0-2.464-0.032h-1.216c-80.576-1.792-145.184-67.52-145.184-148.32 0-0.96 0-1.92 0.032-2.88v0.16zM527.936 522.72c39.936-1.728 71.68-34.56 71.68-74.752 0-0.032 0-0.032 0-0.064v0c-1.344-41.504-35.232-74.624-76.896-74.816h-1.44c-39.936 1.728-71.68 34.56-71.68 74.752 0 1.216 0.032 2.432 0.096 3.648v-0.16c2.144 39.904 35.040 71.488 75.296 71.488 1.024 0 2.048-0.032 3.072-0.064h-0.16z" />
<glyph unicode="&#xe917;" glyph-name="sidebar-arrow-close" d="M661.952 883.296l-391.104-391.264c-11.616-11.712-18.816-27.808-18.816-45.632s7.2-33.92 18.816-45.632l391.168-391.072c11.264-9.792 26.080-15.776 42.272-15.776 35.648 0 64.576 28.896 64.576 64.576 0 16.736-6.368 31.968-16.8 43.424l0.032-0.064-344.576 344.576 345.6 345.792c12.576 11.808 20.384 28.512 20.384 47.040 0 35.616-28.864 64.448-64.448 64.448-18.592 0-35.328-7.872-47.072-20.448l-0.032-0.032z" />
<glyph unicode="&#xe918;" glyph-name="sidebar-arrow-open" d="M362.048 12.448l391.104 391.488c11.616 11.712 18.816 27.808 18.816 45.632s-7.2 33.92-18.816 45.632l-391.2 391.072c-11.264 9.792-26.080 15.776-42.272 15.776-35.648 0-64.576-28.896-64.576-64.576 0-16.736 6.368-31.968 16.8-43.424l-0.032 0.064 344.64-344.576-345.6-345.792c-11.648-11.648-18.88-27.776-18.88-45.568 0-35.616 28.864-64.448 64.448-64.448 17.792 0 33.92 7.232 45.6 18.88v0z" />
<glyph unicode="&#xe919;" glyph-name="week-icon" d="M1011.52 813.728h-975.232c-20.096 0-36.384-16.288-36.384-36.384v0-658.976c0-20.096 16.288-36.384 36.384-36.384v0h975.232c20.096 0 36.384 16.288 36.384 36.384v0 658.976c0 20.096-16.288 36.384-36.384 36.384v0zM328.128 663.584v-508.928h-255.456v586.4h255.456zM665.344 663.584v-508.928h-264.448v586.4h264.576zM975.232 663.584v-508.928h-237.216v586.4h237.216z" />
</font>
</defs>
</svg>
