<!-- Generated by IcoMoon.io -->
<svg version="1.1" xmlns="http://www.w3.org/2000/svg" width="32" height="32" viewBox="0 0 32 32">
<title>add-arrow</title>
<path fill="#089c56" d="M28 14.24h-10.24v-10.24c0-0.972-0.788-1.76-1.76-1.76v0c-0.972 0-1.76 0.788-1.76 1.76v0 10.24h-10.24c-0.972 0-1.76 0.788-1.76 1.76v0c0 0.972 0.788 1.76 1.76 1.76h10.24v10.24c0 0.972 0.788 1.76 1.76 1.76v0c0.972 0 1.76-0.788 1.76-1.76v0-10.24h10.24c0.972 0 1.76-0.788 1.76-1.76v0c0-0.972-0.788-1.76-1.76-1.76v0z"></path>
</svg>
