<!-- Generated by IcoMoon.io -->
<svg version="1.1" xmlns="http://www.w3.org/2000/svg" width="32" height="32" viewBox="0 0 32 32">
<title>add-appointment-icon</title>
<path fill="#000" d="M16 2.286c7.213 0 13.061 5.848 13.061 13.061s-5.848 13.061-13.061 13.061c-7.213 0-13.061-5.848-13.061-13.061s5.848-13.061 13.061-13.061z"></path>
<path fill="#fff" d="M21.774 14.694h-4.846v-4.571c0-0.361-0.292-0.653-0.653-0.653s-0.653 0.292-0.653 0.653v0 4.571h-4.846c-0.361 0-0.653 0.292-0.653 0.653s0.292 0.653 0.653 0.653v0h4.846v4.571c0 0.361 0.292 0.653 0.653 0.653s0.653-0.292 0.653-0.653v0-4.571h4.846c0.361 0 0.653-0.292 0.653-0.653s-0.292-0.653-0.653-0.653v0z"></path>
</svg>
