<!-- Generated by IcoMoon.io -->
<svg version="1.1" xmlns="http://www.w3.org/2000/svg" width="33" height="32" viewBox="0 0 33 32">
<title>customer-arrives-icon</title>
<path d="M28.319 10.528h-6.759v-4.636c0.015-0.156 0.024-0.337 0.024-0.52 0-1.715-0.776-3.249-1.996-4.27l-0.009-0.007c-0.907-0.56-2.006-0.892-3.183-0.892-0.641 0-1.259 0.098-1.84 0.281l0.043-0.012c-0.47 0.152-0.803 0.586-0.804 1.098v5.593c0 4.14-4.871 5.582-5.079 5.634-0.014 0-0.027 0-0.034 0.014l-0.557 0.174c-0.622-0.593-1.467-0.957-2.396-0.957-0.001 0-0.002 0-0.003 0h-2.116c-0.002 0-0.004 0-0.007 0-1.928 0-3.49 1.563-3.49 3.49 0 0 0 0 0 0v0 12.033c0.001 1.931 1.566 3.496 3.497 3.497h2.11c0.892-0 1.705-0.338 2.319-0.892l-0.003 0.003c0.889 1.059 2.212 1.727 3.692 1.729h13.695c0.149 0.015 0.323 0.024 0.498 0.024 2.686 0 4.895-2.042 5.159-4.658l0.002-0.022 1.702-10.686 0.093-0.577c0.041-0.244 0.065-0.527 0.068-0.815l0-0.003c-0.010-2.55-2.075-4.614-4.623-4.624h-0.001zM6.92 27.559c0 0.001 0 0.001 0 0.002 0 0.661-0.536 1.197-1.197 1.197-0.001 0-0.002 0-0.002 0h-2.11c-0.001 0-0.001 0-0.002 0-0.661 0-1.197-0.536-1.197-1.197 0-0.001 0-0.002 0-0.002v0-12.040c0-0.001 0-0.001 0-0.002 0-0.661 0.536-1.197 1.197-1.197 0.001 0 0.002 0 0.002 0h2.11c0.001 0 0.001 0 0.002 0 0.661 0 1.197 0.536 1.197 1.197 0 0.001 0 0.002 0 0.002v-0zM30.61 15.614l-1.795 11.282c0 0.014 0 0.027 0 0.041-0.081 0.656-0.321 2.66-3.377 2.66h-13.701c-1.39-0.003-2.517-1.129-2.519-2.519v-11.558c-0.002-0.161-0.014-0.318-0.036-0.472l0.002 0.019 0.168-0.054c0.489-0.14 6.734-2.058 6.734-7.846v-4.652c0.143-0.023 0.308-0.036 0.477-0.036 0.615 0 1.188 0.176 1.673 0.481l-0.013-0.008c0.654 0.635 1.060 1.523 1.060 2.506 0 0.154-0.010 0.306-0.029 0.454l0.002-0.018v5.788c0 0.636 0.516 1.152 1.152 1.152v0h7.907c1.283 0.001 2.323 1.041 2.325 2.325v0c0 0.005 0 0.010 0 0.016 0 0.155-0.010 0.307-0.029 0.457l0.002-0.018z"></path>
</svg>
