<!-- Generated by IcoMoon.io -->
<svg version="1.1" xmlns="http://www.w3.org/2000/svg" width="32" height="32" viewBox="0 0 32 32">
<title>date-arrow-left</title>
<path fill="#7a807d" d="M9.76 16.012c0 0.001 0 0.002 0 0.003 0 0.462 0.188 0.881 0.492 1.183l9.124 9.124c0.296 0.265 0.688 0.427 1.119 0.427 0.927 0 1.678-0.751 1.678-1.678 0-0.437-0.167-0.834-0.44-1.133l0.001 0.001-7.916-7.926 7.932-7.936c0.303-0.305 0.491-0.725 0.491-1.189s-0.187-0.884-0.491-1.189l0 0c-0.304-0.303-0.724-0.491-1.187-0.491s-0.883 0.188-1.187 0.491l-9.124 9.12c-0.304 0.304-0.492 0.723-0.492 1.187 0 0.002 0 0.003 0 0.005v-0z"></path>
</svg>
