<!-- Generated by IcoMoon.io -->
<svg version="1.1" xmlns="http://www.w3.org/2000/svg" width="32" height="32" viewBox="0 0 32 32">
<title>day-icon</title>
<path fill="#089c56" d="M31.61 22.859h-30.476c0 0 0 0 0 0-0.628 0-1.137-0.509-1.137-1.137 0-0.001 0-0.001 0-0.002v0-11.441c0-0.628 0.509-1.137 1.137-1.137v0h30.476c0.628 0 1.137 0.509 1.137 1.137v0 11.441c0 0 0 0.001 0 0.002 0 0.628-0.509 1.137-1.137 1.137 0 0 0 0 0 0v0zM2.27 20.588h28.206v-9.175h-28.206z"></path>
<path fill="#089c56" d="M1.135 4.571h30.476c0.627 0 1.135 0.508 1.135 1.135s-0.508 1.135-1.135 1.135h-30.476c-0.627 0-1.135-0.508-1.135-1.135s0.508-1.135 1.135-1.135z"></path>
<path fill="#089c56" d="M1.135 25.16h30.476c0.627 0 1.135 0.508 1.135 1.135s-0.508 1.135-1.135 1.135h-30.476c-0.627 0-1.135-0.508-1.135-1.135s0.508-1.135 1.135-1.135z"></path>
</svg>
