<!-- Generated by IcoMoon.io -->
<svg version="1.1" xmlns="http://www.w3.org/2000/svg" width="32" height="32" viewBox="0 0 32 32">
<title>edit-customer-icon</title>
<path fill="#fff" stroke="#d2d9d5" stroke-linejoin="miter" stroke-linecap="butt" stroke-miterlimit="4" stroke-width="0.6957" d="M16 1.391c7.684 0 13.913 6.229 13.913 13.913s-6.229 13.913-13.913 13.913c-7.684 0-13.913-6.229-13.913-13.913s6.229-13.913 13.913-13.913z"></path>
<path fill="none" stroke="#d2d9d5" stroke-linejoin="miter" stroke-linecap="butt" stroke-miterlimit="4" stroke-width="0.6957" d="M16 1.739c7.492 0 13.565 6.073 13.565 13.565s-6.073 13.565-13.565 13.565c-7.492 0-13.565-6.073-13.565-13.565s6.073-13.565 13.565-13.565z"></path>
<path fill="#1cad69" d="M21.582 9.651c-0.375-0.375-0.894-0.607-1.467-0.607s-1.091 0.232-1.467 0.607l-8.209 8.209c-0.072 0.071-0.123 0.164-0.143 0.267l-0.001 0.003-0.547 2.733c-0.007 0.031-0.010 0.067-0.010 0.104 0 0.146 0.059 0.277 0.155 0.372l0 0c0.052 0.052 0.115 0.094 0.186 0.12l0.004 0.001-0.011 0.034h0.193c0.001 0 0.003 0 0.005 0 0.035 0 0.069-0.004 0.101-0.011l-0.003 0.001 2.735-0.546c0.106-0.021 0.198-0.072 0.27-0.144v0l8.209-8.209c0.375-0.375 0.607-0.894 0.607-1.466s-0.232-1.091-0.607-1.466v0zM20.837 11.839l-8.095 8.094-1.809 0.361 0.361-1.809 8.098-8.092c0.186-0.194 0.448-0.315 0.738-0.315 0.564 0 1.022 0.458 1.022 1.022 0 0.29-0.121 0.552-0.315 0.738l-0 0z"></path>
<path fill="#1cad69" d="M20.114 13.691c-0.001 0-0.002 0-0.003 0-0.106 0-0.201-0.042-0.271-0.111l0 0-2.189-2.191c-0.075-0.071-0.121-0.17-0.121-0.281 0-0.214 0.173-0.387 0.387-0.387 0.103 0 0.197 0.040 0.266 0.106l-0-0 2.204 2.204c0.070 0.070 0.113 0.167 0.113 0.273 0 0.214-0.173 0.387-0.387 0.387v0z"></path>
</svg>
