<!-- Generated by IcoMoon.io -->
<svg version="1.1" xmlns="http://www.w3.org/2000/svg" width="32" height="32" viewBox="0 0 32 32">
<title>expand-arrow</title>
<path fill="#959c98" d="M4.542 12.235l10.138 10.154c0.333 0.336 0.795 0.544 1.305 0.544 0.002 0 0.004 0 0.006 0h-0c0.001 0 0.003 0 0.004 0 0.511 0 0.973-0.207 1.308-0.542l10.155-10.155c0.335-0.336 0.543-0.8 0.543-1.312s-0.207-0.976-0.543-1.312l0 0c-0.337-0.335-0.801-0.542-1.314-0.542s-0.977 0.207-1.314 0.542l-8.83 8.832-8.834-8.832c-0.336-0.335-0.8-0.543-1.313-0.543s-0.977 0.207-1.313 0.543l0-0c-0.335 0.336-0.542 0.799-0.542 1.311s0.208 0.977 0.543 1.313l-0-0z"></path>
</svg>
