<!-- Generated by IcoMoon.io -->
<svg version="1.1" xmlns="http://www.w3.org/2000/svg" width="32" height="32" viewBox="0 0 32 32">
<title>mini-calendar-right-arrow</title>
<path fill="#1cad69" d="M8.872 6.054l9.918 9.926-9.93 9.94c-0.372 0.371-0.601 0.884-0.601 1.45 0 1.131 0.917 2.049 2.049 2.049 0.565 0 1.076-0.229 1.447-0.599l-0 0 11.384-11.4c0.37-0.37 0.599-0.881 0.599-1.446s-0.229-1.076-0.599-1.446l-11.384-11.378c-0.367-0.352-0.866-0.568-1.415-0.568-1.13 0-2.046 0.916-2.046 2.046 0 0.555 0.221 1.058 0.58 1.427l-0-0z"></path>
</svg>
