<!-- Generated by IcoMoon.io -->
<svg version="1.1" xmlns="http://www.w3.org/2000/svg" width="32" height="32" viewBox="0 0 32 32">
<title>mini-calendar-left-arrow</title>
<path fill="#1cad69" d="M23.128 25.944l-9.92-9.924 9.928-9.94c0.371-0.37 0.6-0.882 0.6-1.447 0-1.129-0.916-2.045-2.045-2.045-0.564 0-1.075 0.228-1.445 0.598l-11.384 11.386c-0.37 0.37-0.599 0.881-0.599 1.446s0.229 1.076 0.599 1.446l11.384 11.384c0.367 0.352 0.866 0.568 1.415 0.568 1.13 0 2.046-0.916 2.046-2.046 0-0.555-0.221-1.058-0.58-1.427l0 0z"></path>
</svg>
