<!-- Generated by IcoMoon.io -->
<svg version="1.1" xmlns="http://www.w3.org/2000/svg" width="32" height="32" viewBox="0 0 32 32">
<title>month-icon</title>
<path fill="#575c5a" d="M0 5.708v20.596c0 0 0 0 0 0 0 0.628 0.509 1.137 1.137 1.138h30.476c0.628-0.001 1.137-0.51 1.137-1.138 0 0 0 0 0 0v0-20.596c0-0.628-0.509-1.137-1.137-1.137v0h-30.476c-0.628 0-1.137 0.509-1.137 1.137v0zM30.476 14.869h-7.412v-8.027h7.412zM12.526 14.869v-8.027h8.267v8.034zM20.792 17.14v8.026h-8.267v-8.026zM10.254 6.842v8.034h-7.989v-8.027zM2.27 17.14h7.983v8.026h-7.989zM23.064 25.166v-8.026h7.412v8.026z"></path>
</svg>
