<!-- Generated by IcoMoon.io -->
<svg version="1.1" xmlns="http://www.w3.org/2000/svg" width="32" height="32" viewBox="0 0 32 32">
<title>next-appointment-icon</title>
<path fill="#089c56" stroke="#089c56" stroke-linejoin="miter" stroke-linecap="butt" stroke-miterlimit="4" stroke-width="0.6923" d="M28.068 31.645h-24.133c-1.977-0.001-3.58-1.601-3.588-3.576v-21.526c0.001-1.981 1.607-3.587 3.588-3.588h24.133c1.981 0.001 3.587 1.607 3.588 3.588v21.526c-0.008 1.976-1.611 3.576-3.588 3.577h-0zM3.935 4.913c-0.901 0.001-1.63 0.731-1.631 1.631v21.523c0.001 0.901 0.731 1.63 1.631 1.631h24.133c0.901-0.001 1.63-0.731 1.631-1.631v-21.526c-0.001-0.901-0.731-1.63-1.631-1.631h-0zM3.935 4.913"></path>
<path fill="#089c56" stroke="#089c56" stroke-linejoin="miter" stroke-linecap="butt" stroke-miterlimit="4" stroke-width="0.6923" d="M30.675 12.738h-29.351c-0.54 0-0.978-0.438-0.978-0.978s0.438-0.978 0.978-0.978v0h29.351c0.54 0 0.978 0.438 0.978 0.978s-0.438 0.978-0.978 0.978v0zM30.675 12.738"></path>
<path fill="#089c56" stroke="#089c56" stroke-linejoin="miter" stroke-linecap="butt" stroke-miterlimit="4" stroke-width="0.6923" d="M7.848 8.174c-0.54 0-0.978-0.438-0.978-0.978v0-5.871c0-0.54 0.438-0.978 0.978-0.978s0.978 0.438 0.978 0.978v5.871c0 0.54-0.438 0.978-0.978 0.978v0zM7.848 8.174"></path>
<path fill="#089c56" stroke="#089c56" stroke-linejoin="miter" stroke-linecap="butt" stroke-miterlimit="4" stroke-width="0.6923" d="M24.154 8.174c-0.54 0-0.978-0.438-0.978-0.978v0-5.871c0-0.54 0.438-0.978 0.978-0.978s0.978 0.438 0.978 0.978v0 5.871c0 0.54-0.438 0.978-0.978 0.978v0zM24.154 8.174"></path>
</svg>
