<!-- Generated by IcoMoon.io -->
<svg version="1.1" xmlns="http://www.w3.org/2000/svg" width="33" height="32" viewBox="0 0 33 32">
<title>no-show-icon</title>
<path d="M4.742 21.472h6.761v4.636c-0.016 0.16-0.026 0.346-0.026 0.534 0 1.709 0.77 3.237 1.982 4.258l0.008 0.007c0.908 0.561 2.009 0.894 3.187 0.894 0.644 0 1.264-0.099 1.847-0.283l-0.043 0.012c0.47-0.152 0.803-0.586 0.804-1.098v-5.596c0-4.14 4.871-5.582 5.079-5.634 0.014 0 0.027 0 0.034-0.014l0.557-0.174c0.622 0.593 1.467 0.957 2.396 0.957 0.001 0 0.002 0 0.003 0h2.109c0.002 0 0.004 0 0.007 0 1.928 0 3.49-1.563 3.49-3.49 0 0 0 0 0 0v0-12.033c-0.001-1.931-1.566-3.496-3.497-3.497h-2.11c-0 0-0.001 0-0.001 0-0.894 0-1.708 0.339-2.322 0.894l0.003-0.003c-0.889-1.059-2.212-1.727-3.692-1.729h-13.69c-0.149-0.015-0.322-0.024-0.498-0.024-2.686 0-4.895 2.042-5.159 4.658l-0.002 0.022-1.698 10.686-0.093 0.577c-0.041 0.244-0.065 0.527-0.068 0.815l-0 0.003c0.012 2.55 2.078 4.615 4.628 4.622h0.001zM26.144 4.441c0-0.001 0-0.001 0-0.002 0-0.661 0.536-1.197 1.197-1.197 0.001 0 0.002 0 0.002 0h2.11c0.001 0 0.001 0 0.002 0 0.661 0 1.197 0.536 1.197 1.197 0 0.001 0 0.002 0 0.002v-0 12.040c0 0.001 0 0.001 0 0.002 0 0.661-0.536 1.197-1.197 1.197-0.001 0-0.002 0-0.002 0h-2.11c-0.001 0-0.001 0-0.002 0-0.661 0-1.197-0.536-1.197-1.197 0-0.001 0-0.002 0-0.002v0zM2.451 16.388l1.795-11.282c0-0.014 0-0.027 0-0.041 0.082-0.656 0.321-2.66 3.377-2.66h13.695c1.39 0.003 2.517 1.129 2.519 2.519v11.558c0.002 0.161 0.014 0.318 0.036 0.472l-0.002-0.019-0.168 0.054c-0.489 0.14-6.734 2.058-6.734 7.846v4.643c-0.146 0.024-0.314 0.038-0.485 0.038-0.614 0-1.187-0.176-1.672-0.48l0.013 0.008c-0.654-0.635-1.060-1.523-1.060-2.506 0-0.154 0.010-0.306 0.029-0.454l-0.002 0.018v-5.781c0-0.636-0.516-1.152-1.152-1.152v0h-7.9c-1.283-0.001-2.323-1.041-2.325-2.325v-0c0.002-0.162 0.014-0.32 0.036-0.474l-0.002 0.019z"></path>
</svg>
