<!-- Generated by IcoMoon.io -->
<svg version="1.1" xmlns="http://www.w3.org/2000/svg" width="32" height="32" viewBox="0 0 32 32">
<title>note-icon</title>
<path d="M24.689 1.986c-2.13-1.248-4.691-1.985-7.424-1.986h-0.025c-0.010-0-0.022-0-0.034-0-4.095 0-7.801 1.667-10.476 4.359l-0.001 0.001c-2.688 2.675-4.352 6.378-4.352 10.47 0 0.015 0 0.031 0 0.046v-0.002c0.002 2.643 0.692 5.124 1.902 7.275l-0.039-0.075-4.162 7.943c-0.050 0.145-0.080 0.312-0.080 0.485 0 0.418 0.169 0.796 0.442 1.071l-0-0c0.269 0.265 0.639 0.428 1.047 0.428 0.003 0 0.006 0 0.009-0h-0c0.197-0.002 0.386-0.036 0.561-0.097l-0.012 0.004 7.975-4.052c2.084 1.179 4.576 1.873 7.231 1.873 5.479 0 10.267-2.959 12.852-7.366l0.038-0.070c1.246-2.13 1.981-4.689 1.981-7.42 0-5.477-2.958-10.263-7.363-12.848l-0.070-0.038zM10.991 24.879c-0.228-0.141-0.505-0.225-0.802-0.225-0.196 0-0.383 0.037-0.555 0.103l0.011-0.004-5.314 2.954 3.050-5.3c0.045-0.138 0.072-0.297 0.072-0.461 0-0.301-0.087-0.581-0.238-0.817l0.004 0.006c-1.123-1.775-1.789-3.935-1.789-6.251 0-4.207 2.198-7.9 5.509-9.994l0.049-0.029c1.767-1.125 3.921-1.793 6.23-1.794h0c0 0 0 0 0 0 0.952 0 1.879 0.112 2.766 0.324l-0.081-0.016c3.125 0.731 5.714 2.633 7.331 5.207l0.029 0.049c1.122 1.767 1.789 3.92 1.789 6.228 0 0.953-0.114 1.88-0.328 2.768l0.016-0.080c-0.731 3.124-2.631 5.712-5.204 7.329l-0.049 0.029c-1.679 1.065-3.71 1.722-5.89 1.787l-0.017 0h-0.337c-2.318-0.004-4.478-0.679-6.297-1.84l0.047 0.028z"></path>
</svg>
