<!-- Generated by IcoMoon.io -->
<svg version="1.1" xmlns="http://www.w3.org/2000/svg" width="31" height="32" viewBox="0 0 31 32">
<title>recurring-icon</title>
<path d="M28.236 5.556l-0.039-0.039-1.022-0.985c-2.871-2.798-6.799-4.524-11.13-4.524-0.001 0-0.002 0-0.003 0h-0.138c-8.345 0.086-15.16 6.518-15.853 14.695l-0.004 0.059c-0.029 0.361-0.045 0.781-0.045 1.206 0 8.398 6.47 15.284 14.697 15.948l0.057 0.004c0.473 0.052 1.022 0.081 1.578 0.081h0c5.641-0.116 10.505-3.332 12.967-8.009l0.039-0.082-2.983-1.374c-2.156 3.519-5.89 5.889-10.193 6.125l-0.033 0.001h-0.025c-0.017 0-0.036 0-0.056 0-3.421 0-6.526-1.353-8.809-3.553l0.004 0.004c-2.388-2.31-3.871-5.544-3.871-9.124 0-3.416 1.35-6.516 3.545-8.797l-0.004 0.004c2.251-2.345 5.395-3.819 8.884-3.872l0.010-0h0.165c0.019-0 0.041-0 0.064-0 3.419 0 6.521 1.353 8.801 3.553l-0.004-0.004 1.090 1.049-0.037 0.044-3.156 3.2h8.074l0.416-8.615z"></path>
</svg>
