<!-- Generated by IcoMoon.io -->
<svg version="1.1" xmlns="http://www.w3.org/2000/svg" width="32" height="32" viewBox="0 0 32 32">
<title>reminder-icon</title>
<path d="M27.318 4.689c-2.878-2.896-6.863-4.689-11.268-4.689-0.013 0-0.027 0-0.040 0h-0.013c-8.833 0.008-15.992 7.167-16 15.999v0.001c0.008 8.833 7.167 15.992 15.999 16h0.001c8.833-0.010 15.99-7.167 16-15.999v-0.001c0-0.016 0-0.035 0-0.054 0-4.399-1.789-8.38-4.679-11.256l-0.001-0.001zM16.012 29.026h-0.015c-7.188-0.013-13.011-5.836-13.024-13.023v-0.001c0.013-7.188 5.836-13.011 13.023-13.024h0.001c7.188 0.013 13.011 5.836 13.024 13.023v0.001c-0.004 7.186-5.824 13.011-13.008 13.024h-0.001z"></path>
<path d="M15.995 17.984h0.074c0.789-0.035 1.419-0.671 1.445-1.46l0-0.002v-8.089c0-0.001 0-0.002 0-0.002 0-0.838-0.679-1.517-1.516-1.519h-0c-0.838 0.004-1.516 0.683-1.519 1.521v8.104c0.043 0.806 0.704 1.443 1.516 1.447h0z"></path>
<path d="M15.998 20.318c-1.088 0-1.969 0.882-1.969 1.969v0c0 1.088 0.882 1.969 1.969 1.969v0c1.088 0 1.969-0.882 1.969-1.969v0c0-1.088-0.882-1.969-1.969-1.969v0z"></path>
</svg>
