<!-- Generated by IcoMoon.io -->
<svg version="1.1" xmlns="http://www.w3.org/2000/svg" width="32" height="32" viewBox="0 0 32 32">
<title>search-icon</title>
<path fill="#cad4d0" d="M14.277 6.646c-4.216 0-7.634 3.418-7.634 7.634s3.418 7.634 7.634 7.634c4.216 0 7.634-3.418 7.634-7.634v0c0-4.216-3.418-7.634-7.634-7.634v0zM2.827 14.28c0-0.001 0-0.001 0-0.002 0-6.323 5.126-11.45 11.45-11.45s11.45 5.126 11.45 11.45c0 2.487-0.793 4.789-2.14 6.667l0.023-0.034 5.022 5.021c0.334 0.343 0.541 0.813 0.541 1.331 0 1.054-0.855 1.909-1.909 1.909-0.518 0-0.988-0.206-1.332-0.541l0 0-5.026-5.018c-1.843 1.322-4.143 2.114-6.629 2.114-6.323 0-11.448-5.124-11.451-11.446v-0z"></path>
</svg>
