<!-- Generated by IcoMoon.io -->
<svg version="1.1" xmlns="http://www.w3.org/2000/svg" width="32" height="32" viewBox="0 0 32 32">
<title>send-message-icon</title>
<path fill="#fff" stroke="#d2d9d5" stroke-linejoin="miter" stroke-linecap="butt" stroke-miterlimit="4" stroke-width="0.6957" d="M16 1.391c7.684 0 13.913 6.229 13.913 13.913s-6.229 13.913-13.913 13.913c-7.684 0-13.913-6.229-13.913-13.913s6.229-13.913 13.913-13.913z"></path>
<path fill="none" stroke="#d2d9d5" stroke-linejoin="miter" stroke-linecap="butt" stroke-miterlimit="4" stroke-width="0.6957" d="M16 1.739c7.492 0 13.565 6.073 13.565 13.565s-6.073 13.565-13.565 13.565c-7.492 0-13.565-6.073-13.565-13.565s6.073-13.565 13.565-13.565z"></path>
<path fill="#1cad69" d="M22.348 9.177v0c-0.082-0.081-0.196-0.132-0.321-0.132-0.060 0-0.117 0.012-0.169 0.033l0.003-0.001-12.299 4.916c-0.169 0.069-0.285 0.232-0.285 0.422 0 0.179 0.103 0.334 0.253 0.408l0.003 0.001 4.825 2.34 2.341 4.824c0.078 0.154 0.234 0.257 0.415 0.257 0.003 0 0.006-0 0.010-0h-0c0.183-0.007 0.339-0.122 0.404-0.282l0.001-0.003 4.918-12.291c0.021-0.051 0.034-0.11 0.034-0.172 0-0.125-0.050-0.238-0.132-0.321l0 0zM20.138 10.743l-5.532 5.532-3.75-1.818zM20.781 11.386l-3.715 9.281-1.818-3.752z"></path>
</svg>
