<!-- Generated by IcoMoon.io -->
<svg version="1.1" xmlns="http://www.w3.org/2000/svg" width="33" height="32" viewBox="0 0 33 32">
<title>settings-icon</title>
<path fill="#1cad69" d="M32.594 14.413c0-1.523-0.804-1.966-4.238-3.202l-0.196-0.070 0.083-0.191c1.452-3.313 1.689-4.193 0.617-5.251l-2.208-2.146c-0.394-0.38-0.93-0.614-1.521-0.614h-0c-0.372 0-0.791 0-3.789 1.334l-0.183 0.082-0.075-0.187c-1.358-3.384-1.825-4.164-3.294-4.164h-3.118c-1.5 0-1.949 0.792-3.233 4.18l-0.071 0.188-0.186-0.082c-3.049-1.265-3.463-1.265-3.828-1.265-0.586 0.005-1.116 0.239-1.506 0.616l0.001-0.001-2.208 2.153c-1.086 1.068-0.824 1.998 0.681 5.204l0.088 0.188-0.194 0.075c-3.47 1.354-4.213 1.785-4.213 3.278v3.053c0 1.523 0.803 1.967 4.236 3.206l0.195 0.069-0.083 0.192c-1.448 3.302-1.68 4.183-0.616 5.238l2.194 2.145c0.393 0.384 0.93 0.622 1.523 0.625h0c0.369 0 0.789 0 3.787-1.335l0.184-0.083 0.075 0.187c1.313 3.233 1.76 4.165 3.309 4.165h3.118c1.502 0 1.949-0.794 3.235-4.186l0.071-0.188 0.186 0.077c3.052 1.272 3.479 1.272 3.823 1.272 0.588-0.003 1.121-0.236 1.514-0.613l-0.001 0.001 2.218-2.171c1.076-1.069 0.812-1.997-0.691-5.196l-0.088-0.183 0.194-0.077c3.413-1.33 4.21-1.791 4.21-3.272zM30.296 17.387l-0.097 0.057c-0.618 0.356-2.251 0.994-3.127 1.337l-0.625 0.244-0.779 1.842 0.221 0.457c0.432 0.832 0.896 1.878 1.304 2.952l0.074 0.222 0.034 0.113-2.117 2.079-0.112-0.036c-1.368-0.445-2.479-0.885-3.558-1.383l0.202 0.084-0.43-0.183-1.875 0.76-0.178 0.469c-0.466 1.316-0.912 2.371-1.408 3.397l0.088-0.202-0.053 0.112h-2.996l-0.057-0.095c-0.379-0.638-1.103-2.427-1.412-3.192l-0.195-0.473-1.877-0.757-0.444 0.201c-0.854 0.428-1.931 0.887-3.036 1.288l-0.227 0.072-0.114 0.040-2.118-2.072 0.030-0.11c0.191-0.701 0.909-2.35 1.259-3.142l0.251-0.568-0.769-1.843-0.472-0.169c-1.109-0.375-2.208-0.811-3.271-1.299l-0.114-0.052v-2.936l0.1-0.056c0.616-0.344 2.176-0.96 3.297-1.393l0.452-0.177 0.779-1.839-0.221-0.46c-0.422-0.818-0.886-1.861-1.298-2.93l-0.080-0.236-0.044-0.12 2.123-2.072 0.11 0.035c1.362 0.436 2.474 0.873 3.553 1.369l-0.194-0.080 0.429 0.183 1.873-0.757 0.177-0.472c0.468-1.319 0.916-2.378 1.415-3.408l-0.088 0.2 0.056-0.1h2.988l0.057 0.095c0.427 0.815 0.896 1.852 1.312 2.914l0.080 0.232 0.216 0.52 1.873 0.759 0.444-0.204c0.853-0.427 1.93-0.884 3.036-1.284l0.228-0.072 0.114-0.039 2.123 2.069-0.030 0.11c-0.181 0.66-0.843 2.184-1.198 3.002l-0.312 0.709 0.779 1.843 0.563 0.199c1.318 0.448 2.371 0.876 3.396 1.354l-0.211-0.088 0.103 0.056z"></path>
<path fill="#575c5a" d="M11.766 16.098c0.052 2.515 2.103 4.535 4.626 4.536h0.098c2.525-0.041 4.556-2.098 4.556-4.629 0-2.557-2.073-4.629-4.629-4.629-0.026 0-0.051 0-0.077 0.001l0.004-0h-0.042c-2.518 0.056-4.537 2.11-4.537 4.635 0 0.030 0 0.060 0.001 0.090l-0-0.005zM16.498 13.665c1.248 0.054 2.24 1.080 2.24 2.336 0 0.001 0 0.001 0 0.002v-0c-0.042 1.297-1.101 2.332-2.403 2.338h-0.045c-1.248-0.054-2.24-1.080-2.24-2.336 0-0.038 0.001-0.076 0.003-0.114l-0 0.005c0.067-1.247 1.095-2.234 2.353-2.234 0.032 0 0.064 0.001 0.096 0.002l-0.005-0z"></path>
</svg>
