<!-- Generated by IcoMoon.io -->
<svg version="1.1" xmlns="http://www.w3.org/2000/svg" width="32" height="32" viewBox="0 0 32 32">
<title>sidebar-arrow-close</title>
<path fill="#7a807d" d="M20.686 2.397l-12.222 12.227c-0.363 0.366-0.588 0.869-0.588 1.426s0.225 1.060 0.588 1.426l12.224 12.221c0.352 0.306 0.815 0.493 1.321 0.493 1.114 0 2.018-0.903 2.018-2.018 0-0.523-0.199-0.999-0.525-1.357l0.001 0.002-10.768-10.768 10.8-10.806c0.393-0.369 0.637-0.891 0.637-1.47 0-1.113-0.902-2.014-2.014-2.014-0.581 0-1.104 0.246-1.471 0.639l-0.001 0.001z"></path>
</svg>
