<!-- Generated by IcoMoon.io -->
<svg version="1.1" xmlns="http://www.w3.org/2000/svg" width="32" height="32" viewBox="0 0 32 32">
<title>sidebar-arrow-open</title>
<path fill="#7a807d" d="M11.314 29.611l12.222-12.234c0.363-0.366 0.588-0.869 0.588-1.426s-0.225-1.060-0.588-1.426l-12.225-12.221c-0.352-0.306-0.815-0.493-1.321-0.493-1.114 0-2.018 0.903-2.018 2.018 0 0.523 0.199 0.999 0.525 1.357l-0.001-0.002 10.77 10.768-10.8 10.806c-0.364 0.364-0.59 0.868-0.59 1.424 0 1.113 0.902 2.014 2.014 2.014 0.556 0 1.060-0.226 1.425-0.59v0z"></path>
</svg>
